<mxfile host="app.diagrams.net" modified="2024-01-15T08:51:35.654Z" agent="Mozilla/5.0 (Macintosh; Intel Mac OS X 10_15_7) AppleWebKit/537.36 (KHTML, like Gecko) Chrome/120.0.0.0 Safari/537.36" etag="PEPt4SUsK5zfZRIMnu6h" version="22.1.15" type="github">
  <diagram name="Page-1" id="_Tm6Zg3FOmJO2AEdU1JB">
    <mxGraphModel dx="954" dy="606" grid="1" gridSize="10" guides="1" tooltips="1" connect="1" arrows="1" fold="1" page="1" pageScale="1" pageWidth="850" pageHeight="1100" math="0" shadow="0">
      <root>
        <mxCell id="0" />
        <mxCell id="1" parent="0" />
        <mxCell id="1Gt6x5z-0TugZDWT3jUm-6" style="edgeStyle=orthogonalEdgeStyle;rounded=0;orthogonalLoop=1;jettySize=auto;html=1;exitX=0.5;exitY=1;exitDx=0;exitDy=0;" edge="1" parent="1" source="1Gt6x5z-0TugZDWT3jUm-1">
          <mxGeometry relative="1" as="geometry">
            <mxPoint x="240" y="260" as="targetPoint" />
          </mxGeometry>
        </mxCell>
        <mxCell id="1Gt6x5z-0TugZDWT3jUm-1" value="万花筒" style="rounded=0;whiteSpace=wrap;html=1;" vertex="1" parent="1">
          <mxGeometry x="180" y="160" width="120" height="60" as="geometry" />
        </mxCell>
        <mxCell id="1Gt6x5z-0TugZDWT3jUm-10" style="edgeStyle=orthogonalEdgeStyle;rounded=0;orthogonalLoop=1;jettySize=auto;html=1;exitX=0.5;exitY=1;exitDx=0;exitDy=0;" edge="1" parent="1" source="1Gt6x5z-0TugZDWT3jUm-2" target="1Gt6x5z-0TugZDWT3jUm-8">
          <mxGeometry relative="1" as="geometry" />
        </mxCell>
        <mxCell id="1Gt6x5z-0TugZDWT3jUm-2" value="insight" style="rounded=0;whiteSpace=wrap;html=1;" vertex="1" parent="1">
          <mxGeometry x="350" y="160" width="120" height="60" as="geometry" />
        </mxCell>
        <mxCell id="1Gt6x5z-0TugZDWT3jUm-3" value="woater" style="rounded=0;whiteSpace=wrap;html=1;" vertex="1" parent="1">
          <mxGeometry x="510" y="160" width="120" height="60" as="geometry" />
        </mxCell>
        <mxCell id="1Gt6x5z-0TugZDWT3jUm-16" style="edgeStyle=orthogonalEdgeStyle;rounded=0;orthogonalLoop=1;jettySize=auto;html=1;exitX=0;exitY=0.5;exitDx=0;exitDy=0;entryX=1;entryY=0.5;entryDx=0;entryDy=0;" edge="1" parent="1" source="1Gt6x5z-0TugZDWT3jUm-4" target="1Gt6x5z-0TugZDWT3jUm-3">
          <mxGeometry relative="1" as="geometry" />
        </mxCell>
        <mxCell id="1Gt6x5z-0TugZDWT3jUm-24" style="edgeStyle=orthogonalEdgeStyle;rounded=0;orthogonalLoop=1;jettySize=auto;html=1;exitX=0.5;exitY=1;exitDx=0;exitDy=0;entryX=0.5;entryY=0;entryDx=0;entryDy=0;dashed=1;fillColor=#dae8fc;strokeColor=#6c8ebf;" edge="1" parent="1" source="1Gt6x5z-0TugZDWT3jUm-4" target="1Gt6x5z-0TugZDWT3jUm-21">
          <mxGeometry relative="1" as="geometry" />
        </mxCell>
        <mxCell id="1Gt6x5z-0TugZDWT3jUm-4" value="北极星" style="rounded=0;whiteSpace=wrap;html=1;" vertex="1" parent="1">
          <mxGeometry x="670" y="160" width="120" height="60" as="geometry" />
        </mxCell>
        <mxCell id="1Gt6x5z-0TugZDWT3jUm-5" value="Druid" style="shape=cylinder3;whiteSpace=wrap;html=1;boundedLbl=1;backgroundOutline=1;size=15;" vertex="1" parent="1">
          <mxGeometry x="350" y="390" width="60" height="80" as="geometry" />
        </mxCell>
        <mxCell id="1Gt6x5z-0TugZDWT3jUm-7" value="数梦(查询中心)&lt;br&gt;@赖俊辉&amp;nbsp;" style="rounded=0;whiteSpace=wrap;html=1;" vertex="1" parent="1">
          <mxGeometry x="180" y="260" width="120" height="60" as="geometry" />
        </mxCell>
        <mxCell id="1Gt6x5z-0TugZDWT3jUm-9" style="edgeStyle=orthogonalEdgeStyle;rounded=0;orthogonalLoop=1;jettySize=auto;html=1;exitX=0.5;exitY=1;exitDx=0;exitDy=0;" edge="1" parent="1" source="1Gt6x5z-0TugZDWT3jUm-8" target="1Gt6x5z-0TugZDWT3jUm-5">
          <mxGeometry relative="1" as="geometry" />
        </mxCell>
        <mxCell id="1Gt6x5z-0TugZDWT3jUm-12" style="edgeStyle=orthogonalEdgeStyle;rounded=0;orthogonalLoop=1;jettySize=auto;html=1;exitX=0;exitY=0.5;exitDx=0;exitDy=0;entryX=1;entryY=0.5;entryDx=0;entryDy=0;" edge="1" parent="1" source="1Gt6x5z-0TugZDWT3jUm-8" target="1Gt6x5z-0TugZDWT3jUm-7">
          <mxGeometry relative="1" as="geometry" />
        </mxCell>
        <mxCell id="1Gt6x5z-0TugZDWT3jUm-8" value="QE&lt;br&gt;@朱海龙" style="rounded=0;whiteSpace=wrap;html=1;" vertex="1" parent="1">
          <mxGeometry x="350" y="260" width="120" height="60" as="geometry" />
        </mxCell>
        <mxCell id="1Gt6x5z-0TugZDWT3jUm-13" style="edgeStyle=orthogonalEdgeStyle;rounded=0;orthogonalLoop=1;jettySize=auto;html=1;exitX=0.5;exitY=1;exitDx=0;exitDy=0;entryX=0.5;entryY=0;entryDx=0;entryDy=0;entryPerimeter=0;" edge="1" parent="1" source="1Gt6x5z-0TugZDWT3jUm-7" target="1Gt6x5z-0TugZDWT3jUm-5">
          <mxGeometry relative="1" as="geometry" />
        </mxCell>
        <mxCell id="1Gt6x5z-0TugZDWT3jUm-15" style="edgeStyle=orthogonalEdgeStyle;rounded=0;orthogonalLoop=1;jettySize=auto;html=1;exitX=0.5;exitY=1;exitDx=0;exitDy=0;entryX=1;entryY=0.5;entryDx=0;entryDy=0;entryPerimeter=0;" edge="1" parent="1" source="1Gt6x5z-0TugZDWT3jUm-3" target="1Gt6x5z-0TugZDWT3jUm-5">
          <mxGeometry relative="1" as="geometry" />
        </mxCell>
        <mxCell id="1Gt6x5z-0TugZDWT3jUm-17" value="SR" style="shape=cylinder3;whiteSpace=wrap;html=1;boundedLbl=1;backgroundOutline=1;size=15;" vertex="1" parent="1">
          <mxGeometry x="700" y="390" width="60" height="80" as="geometry" />
        </mxCell>
        <mxCell id="1Gt6x5z-0TugZDWT3jUm-23" style="edgeStyle=orthogonalEdgeStyle;rounded=0;orthogonalLoop=1;jettySize=auto;html=1;exitX=0.5;exitY=1;exitDx=0;exitDy=0;dashed=1;fillColor=#dae8fc;strokeColor=#6c8ebf;" edge="1" parent="1" source="1Gt6x5z-0TugZDWT3jUm-21" target="1Gt6x5z-0TugZDWT3jUm-17">
          <mxGeometry relative="1" as="geometry" />
        </mxCell>
        <mxCell id="1Gt6x5z-0TugZDWT3jUm-21" value="指标服务化&lt;br&gt;@江国荐" style="rounded=0;whiteSpace=wrap;html=1;" vertex="1" parent="1">
          <mxGeometry x="670" y="260" width="120" height="60" as="geometry" />
        </mxCell>
      </root>
    </mxGraphModel>
  </diagram>
</mxfile>
